<?xml version="1.0" encoding="utf-8"?>
<!-- Generator: Adobe Illustrator 17.0.0, SVG Export Plug-In . SVG Version: 6.00 Build 0)  -->
<!DOCTYPE svg PUBLIC "-//W3C//DTD SVG 1.1//EN" "http://www.w3.org/Graphics/SVG/1.1/DTD/svg11.dtd">
<svg version="1.1" id="图层_1" xmlns="http://www.w3.org/2000/svg" xmlns:xlink="http://www.w3.org/1999/xlink" x="0px" y="0px"
	 width="100px" height="100px" viewBox="0 0 100 100" enable-background="new 0 0 100 100" xml:space="preserve">
<g>
	<g>
		<path fill="#65C1E3" d="M19.988,5.933h35.188c0,0,35.511-0.84,35.511,38.918c0,13.489-5.385,37.269-35.349,38.918h-35.35V5.933z"
			/>
		<polygon fill="#E5E5E4" points="58.329,64.627 67.71,64.627 57.71,26.072 48.329,26.072 		"/>
		<polygon fill="#E5E5E4" points="38.02,64.627 47.401,64.627 37.402,26.072 28.021,26.072 		"/>
		<polygon fill="#FFFFFF" points="47.556,64.627 38.175,64.627 48.175,26.072 57.556,26.072 		"/>
		<polygon fill="#FFFFFF" points="67.865,64.627 58.483,64.627 68.483,26.072 77.864,26.072 		"/>
	</g>
	<path fill="#65C1E3" d="M28.193,79.321l-2.345-1.883c0,0-5.86,0.007-5.86,0.355c0,0.992-0.076,4.032-0.251,4.536
		c-0.28,0.809-2.029,2.151-4.816,1.961c-0.279-0.04-0.56-0.054-0.842-0.046c-0.013-0.002-0.026-0.002-0.039-0.004l0.004,0.005
		c-1.007,0.037-2.012,0.378-2.864,1.051c-2.13,1.684-2.491,4.776-0.807,6.906s4.776,2.491,6.906,0.807
		c1.378-1.09,2.01-2.768,1.833-4.395l0.005,0.001c0,0-0.363-2.651,1.609-4.22c0.642-0.511,2.224-0.64,4.53-0.64
		c1.211,0,1.439-2.37,1.928-2.211c0.489,0.159,1.813-0.629,1.813-0.629L28.193,79.321z"/>
	<g>
		<path fill="#FFFFFF" d="M12.793,86.541c0,0-0.759,0.244-1.677,1.275l-0.584-0.407c0,0,0.389-1.082,1.559-1.655L12.793,86.541z"/>
		<path fill="#FFFFFF" d="M10.877,88.232c-0.153,0.181-0.682,1.255-0.764,1.922c0,0-0.21-1.251,0.23-2.282L10.877,88.232z"/>
	</g>
</g>
</svg>
